<svg xmlns="http://www.w3.org/2000/svg" width="1080" height="1080"><polygon points="583,873 651,991 718,873" fill="rgb(255,90,90)" /><polygon points="258,871 326,989 393,871" fill="rgb(255,90,90)" /><polygon points="908,863 976,981 1043,863" fill="rgb(255,90,90)" /><polygon points="812,853 683,1079 942,1079" fill="rgb(255,90,90)" /><polygon points="487,842 353,1079 623,1079" fill="rgb(255,90,90)" /><polygon points="162,842 27,1079 298,1079" fill="rgb(255,90,90)" /><polygon points="256,304 324,422 391,304" fill="rgb(255,172,172)" /><polygon points="1039,301 904,304 974,421" fill="rgb(255,172,172)" /><polygon points="714,301 579,304 648,420" fill="rgb(255,172,172)" /><polygon points="161,285 1,566 322,566" fill="rgb(255,172,172)" /><polygon points="813,283 653,564 974,564" fill="rgb(255,172,172)" /><polygon points="485,283 325,564 646,564" fill="rgb(255,172,172)" /><polygon points="1038,47 903,49 972,166" fill="rgb(255,212,212)" /><polygon points="714,47 579,49 648,166" fill="rgb(255,212,212)" /><polygon points="390,47 255,49 324,166" fill="rgb(255,212,212)" /><polygon points="809,1 649,282 970,282" fill="rgb(255,212,212)" /><polygon points="485,1 325,282 646,282" fill="rgb(255,212,212)" /><polygon points="161,1 1,282 322,282" fill="rgb(255,212,212)" /><polygon points="160,567 0,567 0,847" fill="rgb(255,255,255)" /><polygon points="487,0 648,281 808,0" fill="rgb(255,255,255)" /><polygon points="163,0 324,281 484,0" fill="rgb(255,255,255)" /><polygon points="160,0 0,0 0,281" fill="rgb(255,255,255)" /><polygon points="257,587 325,705 392,587" fill="rgb(255,131,131)" /><polygon points="906,583 974,701 1041,583" fill="rgb(255,131,131)" /><polygon points="714,583 579,583 646,701" fill="rgb(255,131,131)" /><polygon points="812,569 651,850 972,850" fill="rgb(255,131,131)" /><polygon points="487,568 326,849 647,849" fill="rgb(255,131,131)" /><polygon points="161,566 1,848 322,848" fill="rgb(255,131,131)" /></svg>