<svg xmlns="http://www.w3.org/2000/svg" width="600" height="600"><polygon points="100.0,0 0,180 200,180" fill="#ffd3d3" /><polygon points="100.0,200 60.0,140 140.0,140" fill="#ffd3d3" /><polygon points="300.0,0 200,180 400,180" fill="#ffd3d3" /><polygon points="300.0,200 260.0,140 340.0,140" fill="#ffd3d3" /><polygon points="500.0,0 400,180 600,180" fill="#ffd3d3" /><polygon points="500.0,200 460.0,140 540.0,140" fill="#ffd3d3" /><polygon points="100.0,160 0,340 200,340" fill="#ffb3b3" /><polygon points="100.0,360 60.0,300 140.0,300" fill="#ffb3b3" /><polygon points="300.0,160 200,340 400,340" fill="#ffb3b3" /><polygon points="300.0,360 260.0,300 340.0,300" fill="#ffb3b3" /><polygon points="500.0,160 400,340 600,340" fill="#ffb3b3" /><polygon points="500.0,360 460.0,300 540.0,300" fill="#ffb3b3" /><polygon points="100.0,320 0,500 200,500" fill="#ff8f8f" /><polygon points="100.0,520 60.0,460 140.0,460" fill="#ff8f8f" /><polygon points="300.0,320 200,500 400,500" fill="#ff8f8f" /><polygon points="300.0,520 260.0,460 340.0,460" fill="#ff8f8f" /><polygon points="500.0,320 400,500 600,500" fill="#ff8f8f" /><polygon points="500.0,520 460.0,460 540.0,460" fill="#ff8f8f" /><polygon points="100.0,480 0,660 200,660" fill="#ff6b6b" /><polygon points="300.0,480 200,660 400,660" fill="#ff6b6b" /><polygon points="500.0,480 400,660 600,660" fill="#ff6b6b" /></svg>